<svg xmlns="http://www.w3.org/2000/svg" xmlns:xlink="http://www.w3.org/1999/xlink" width="24" height="24" viewBox="0 0 24 24">
    <defs>
        <path id="a" d="M20 6V4.994A.996.996 0 0 0 19.006 4H18a.999.999 0 0 1-.999 1h-1.002c-.553 0-.994-.447-.999-1H9a.999.999 0 0 1-.999 1H6.999C6.446 5 6.005 4.553 6 4H4.994A.996.996 0 0 0 4 4.994V6h16zm0 2H4v11.006c0 .547.446.994.994.994h14.012a.996.996 0 0 0 .994-.994V8zm-2-6h1.006A2.996 2.996 0 0 1 22 4.994v14.012A2.996 2.996 0 0 1 19.006 22H4.994A2.996 2.996 0 0 1 2 19.006V4.994A2.996 2.996 0 0 1 4.994 2H6c.005-.562.45-1 .999-1h1.002c.553 0 .994.447.999 1h6c.005-.562.45-1 .999-1h1.002c.553 0 .994.447.999 1zM7 13v-2h2v2H7zm0 4v-2h2v2H7zm4-4v-2h2v2h-2zm0 4v-2h2v2h-2zm4-4v-2h2v2h-2z"/>
    </defs>
    <g fill="none" fill-rule="evenodd">
        <mask id="b" fill="#fff">
            <use xlink:href="#a"/>
        </mask>
        <use fill="#000" fill-opacity="0" fill-rule="nonzero" xlink:href="#a"/>
        <g fill="#000" mask="url(#b)">
            <path d="M0 0h24v24H0z"/>
        </g>
    </g>
</svg>
