<svg xmlns="http://www.w3.org/2000/svg" xmlns:xlink="http://www.w3.org/1999/xlink" width="18" height="12" viewBox="0 0 18 12">
    <defs>
        <path id="a" d="M3 7c0-.552.445-1 .993-1h16.014c.548 0 .993.444.993 1 0 .552-.445 1-.993 1H3.993A.994.994 0 0 1 3 7zm0 5c0-.552.445-1 .993-1h16.014c.548 0 .993.444.993 1 0 .552-.445 1-.993 1H3.993A.994.994 0 0 1 3 12zm0 5c0-.552.445-1 .993-1h16.014c.548 0 .993.444.993 1 0 .552-.445 1-.993 1H3.993A.994.994 0 0 1 3 17z"/>
    </defs>
    <use fill="#000" fill-opacity="0" fill-rule="evenodd" transform="translate(-3 -6)" xlink:href="#a"/>
</svg>
