<svg xmlns="http://www.w3.org/2000/svg" xmlns:xlink="http://www.w3.org/1999/xlink" width="18" height="20" viewBox="0 0 18 20">
    <defs>
        <path id="a" d="M15 20h4V4H5v16h4v-4h-.003A.996.996 0 0 1 8 15c0-.552.453-1 .997-1h6.006c.55 0 .997.444.997 1 0 .552-.453 1-.997 1H15v4zM3 2.992C3 2.444 3.445 2 3.993 2h16.014a1 1 0 0 1 .993.992v18.016a.993.993 0 0 1-.993.992H3.993A1 1 0 0 1 3 21.008V2.992zM7 6h2v2H7V6zm0 4h2v2H7v-2zm4-4h2v2h-2V6zm0 4h2v2h-2v-2zm0 6v4h2v-4h-2zm4-10h2v2h-2V6zm0 4h2v2h-2v-2z"/>
    </defs>
    <use fill="#000" fill-opacity="0" fill-rule="nonzero" transform="translate(-3 -2)" xlink:href="#a"/>
</svg>
