<svg xmlns="http://www.w3.org/2000/svg" xmlns:xlink="http://www.w3.org/1999/xlink" width="24" height="24" viewBox="0 0 24 24">
    <defs>
        <path id="a" d="M11.994 2c2.047 0 4.095.771 5.656 2.312a7.805 7.805 0 0 1 2.331 5.881 7.27 7.27 0 0 1-.553 2.453c-.384.946-.937 1.831-1.562 2.648l-4.555 5.201c-.734.837-1.908.831-2.636 0L6.12 15.294c-.624-.817-1.178-1.702-1.562-2.648a7.247 7.247 0 0 1-.552-2.453 7.804 7.804 0 0 1 2.33-5.88A8.033 8.033 0 0 1 11.994 2zm-.001 16.964l4.324-4.936c.557-.735.978-1.444 1.259-2.135a5.268 5.268 0 0 0 .407-1.778 5.804 5.804 0 0 0-1.737-4.38A6.03 6.03 0 0 0 11.994 4c-1.589 0-3.111.61-4.253 1.735a5.803 5.803 0 0 0-1.737 4.38c.023.58.16 1.17.407 1.779.28.689.7 1.397 1.259 2.134l4.323 4.936zM12 13a3 3 0 1 1 0-6 3 3 0 0 1 0 6zm0-2a1 1 0 1 0 0-2 1 1 0 0 0 0 2z"/>
    </defs>
    <g fill="none" fill-rule="evenodd">
        <mask id="b" fill="#fff">
            <use xlink:href="#a"/>
        </mask>
        <use fill="#000" fill-opacity="0" fill-rule="nonzero" xlink:href="#a"/>
        <g fill="#000" mask="url(#b)">
            <path d="M0 0h24v24H0z"/>
        </g>
    </g>
</svg>
